<mxfile host="app.diagrams.net" agent="Mozilla/5.0 (Windows NT 10.0; Win64; x64) AppleWebKit/537.36 (KHTML, like Gecko) Chrome/139.0.0.0 Safari/537.36" version="28.0.9">
  <diagram id="C5RBs43oDa-KdzZeNtuy" name="Page-1">
    <mxGraphModel dx="2935" dy="562" grid="1" gridSize="10" guides="1" tooltips="1" connect="1" arrows="1" fold="1" page="1" pageScale="1" pageWidth="827" pageHeight="1169" math="0" shadow="0">
      <root>
        <mxCell id="WIyWlLk6GJQsqaUBKTNV-0" />
        <mxCell id="WIyWlLk6GJQsqaUBKTNV-1" parent="WIyWlLk6GJQsqaUBKTNV-0" />
        <mxCell id="c03Vbg7cdXfMLgZm8cjn-12" style="edgeStyle=orthogonalEdgeStyle;rounded=0;orthogonalLoop=1;jettySize=auto;html=1;exitX=1;exitY=0.5;exitDx=0;exitDy=0;entryX=-0.01;entryY=0.24;entryDx=0;entryDy=0;entryPerimeter=0;" parent="WIyWlLk6GJQsqaUBKTNV-1" source="qV7Jv20aMx51wb-Dibgy-9" target="qV7Jv20aMx51wb-Dibgy-13" edge="1">
          <mxGeometry relative="1" as="geometry">
            <mxPoint x="-920" y="270" as="targetPoint" />
            <Array as="points">
              <mxPoint x="-1140" y="250" />
              <mxPoint x="-905" y="250" />
            </Array>
          </mxGeometry>
        </mxCell>
        <mxCell id="c03Vbg7cdXfMLgZm8cjn-13" value="&lt;font style=&quot;font-size: 18px;&quot;&gt;1&lt;/font&gt;" style="edgeLabel;html=1;align=center;verticalAlign=middle;resizable=0;points=[];" parent="c03Vbg7cdXfMLgZm8cjn-12" connectable="0" vertex="1">
          <mxGeometry x="0.7639" y="-3" relative="1" as="geometry">
            <mxPoint x="7" y="-21" as="offset" />
          </mxGeometry>
        </mxCell>
        <mxCell id="zkfFHV4jXpPFQw0GAbJ--0" value="Usuario" style="swimlane;fontStyle=2;align=center;verticalAlign=top;childLayout=stackLayout;horizontal=1;startSize=26;horizontalStack=0;resizeParent=1;resizeLast=0;collapsible=1;marginBottom=0;rounded=0;shadow=0;strokeWidth=1;" parent="WIyWlLk6GJQsqaUBKTNV-1" vertex="1">
          <mxGeometry x="-1328" y="37" width="188" height="508" as="geometry">
            <mxRectangle x="230" y="140" width="160" height="26" as="alternateBounds" />
          </mxGeometry>
        </mxCell>
        <mxCell id="qV7Jv20aMx51wb-Dibgy-1" value="&amp;nbsp;+ id : Int" style="text;html=1;align=left;verticalAlign=middle;whiteSpace=wrap;rounded=0;" parent="zkfFHV4jXpPFQw0GAbJ--0" vertex="1">
          <mxGeometry y="26" width="188" height="30" as="geometry" />
        </mxCell>
        <mxCell id="zkfFHV4jXpPFQw0GAbJ--1" value="+ email : String" style="text;align=left;verticalAlign=top;spacingLeft=4;spacingRight=4;overflow=hidden;rotatable=0;points=[[0,0.5],[1,0.5]];portConstraint=eastwest;" parent="zkfFHV4jXpPFQw0GAbJ--0" vertex="1">
          <mxGeometry y="56" width="188" height="26" as="geometry" />
        </mxCell>
        <mxCell id="zkfFHV4jXpPFQw0GAbJ--2" value="+ senha : String" style="text;align=left;verticalAlign=top;spacingLeft=4;spacingRight=4;overflow=hidden;rotatable=0;points=[[0,0.5],[1,0.5]];portConstraint=eastwest;rounded=0;shadow=0;html=0;" parent="zkfFHV4jXpPFQw0GAbJ--0" vertex="1">
          <mxGeometry y="82" width="188" height="26" as="geometry" />
        </mxCell>
        <mxCell id="zkfFHV4jXpPFQw0GAbJ--3" value="+ nomeCompleto : String" style="text;align=left;verticalAlign=top;spacingLeft=4;spacingRight=4;overflow=hidden;rotatable=0;points=[[0,0.5],[1,0.5]];portConstraint=eastwest;rounded=0;shadow=0;html=0;" parent="zkfFHV4jXpPFQw0GAbJ--0" vertex="1">
          <mxGeometry y="108" width="188" height="32" as="geometry" />
        </mxCell>
        <mxCell id="qV7Jv20aMx51wb-Dibgy-7" value="&amp;nbsp;+ dataUltimoAcesso : Date" style="text;html=1;align=left;verticalAlign=middle;whiteSpace=wrap;rounded=0;" parent="zkfFHV4jXpPFQw0GAbJ--0" vertex="1">
          <mxGeometry y="140" width="188" height="30" as="geometry" />
        </mxCell>
        <mxCell id="qV7Jv20aMx51wb-Dibgy-8" value="&amp;nbsp;+ bAdministrador : Boolean" style="text;html=1;align=left;verticalAlign=middle;whiteSpace=wrap;rounded=0;" parent="zkfFHV4jXpPFQw0GAbJ--0" vertex="1">
          <mxGeometry y="170" width="188" height="30" as="geometry" />
        </mxCell>
        <mxCell id="qV7Jv20aMx51wb-Dibgy-9" value="&amp;nbsp;+ bExcluido : Boolean" style="text;html=1;align=left;verticalAlign=middle;whiteSpace=wrap;rounded=0;" parent="zkfFHV4jXpPFQw0GAbJ--0" vertex="1">
          <mxGeometry y="200" width="188" height="30" as="geometry" />
        </mxCell>
        <mxCell id="nvasFHb4Qg3l4fAu3OuT-20" value="&amp;nbsp;+ Pontuacao : int" style="text;html=1;align=left;verticalAlign=middle;whiteSpace=wrap;rounded=0;" parent="zkfFHV4jXpPFQw0GAbJ--0" vertex="1">
          <mxGeometry y="230" width="188" height="30" as="geometry" />
        </mxCell>
        <mxCell id="nvasFHb4Qg3l4fAu3OuT-32" value="&amp;nbsp;+ idAreaInteresse : int" style="text;html=1;align=left;verticalAlign=middle;whiteSpace=wrap;rounded=0;" parent="zkfFHV4jXpPFQw0GAbJ--0" vertex="1">
          <mxGeometry y="260" width="188" height="30" as="geometry" />
        </mxCell>
        <mxCell id="c03Vbg7cdXfMLgZm8cjn-0" value="&amp;nbsp;+ temaUsuario: Boolean" style="text;html=1;align=left;verticalAlign=middle;whiteSpace=wrap;rounded=0;" parent="zkfFHV4jXpPFQw0GAbJ--0" vertex="1">
          <mxGeometry y="290" width="188" height="30" as="geometry" />
        </mxCell>
        <mxCell id="c03Vbg7cdXfMLgZm8cjn-41" value="+ numeroDeLista: Int" style="text;html=1;align=left;verticalAlign=middle;whiteSpace=wrap;rounded=0;" parent="zkfFHV4jXpPFQw0GAbJ--0" vertex="1">
          <mxGeometry y="320" width="188" height="30" as="geometry" />
        </mxCell>
        <mxCell id="c03Vbg7cdXfMLgZm8cjn-42" value="+ numeroDeSimulado: Int" style="text;html=1;align=left;verticalAlign=middle;whiteSpace=wrap;rounded=0;" parent="zkfFHV4jXpPFQw0GAbJ--0" vertex="1">
          <mxGeometry y="350" width="188" height="30" as="geometry" />
        </mxCell>
        <mxCell id="Lo7v7ZP2rtgedo4GOy0i-53" value="+ limiteDiarioQuestoes&lt;span style=&quot;background-color: transparent; color: light-dark(rgb(0, 0, 0), rgb(255, 255, 255));&quot;&gt;: Int&lt;/span&gt;" style="text;html=1;align=left;verticalAlign=middle;whiteSpace=wrap;rounded=0;" parent="zkfFHV4jXpPFQw0GAbJ--0" vertex="1">
          <mxGeometry y="380" width="188" height="30" as="geometry" />
        </mxCell>
        <mxCell id="zkfFHV4jXpPFQw0GAbJ--4" value="" style="line;html=1;strokeWidth=1;align=left;verticalAlign=middle;spacingTop=-1;spacingLeft=3;spacingRight=3;rotatable=0;labelPosition=right;points=[];portConstraint=eastwest;" parent="zkfFHV4jXpPFQw0GAbJ--0" vertex="1">
          <mxGeometry y="410" width="188" height="8" as="geometry" />
        </mxCell>
        <mxCell id="c03Vbg7cdXfMLgZm8cjn-8" value="&amp;nbsp;+ salvarInformacoes() : void" style="text;strokeColor=none;align=left;fillColor=none;html=1;verticalAlign=middle;whiteSpace=wrap;rounded=0;" parent="zkfFHV4jXpPFQw0GAbJ--0" vertex="1">
          <mxGeometry y="418" width="188" height="30" as="geometry" />
        </mxCell>
        <mxCell id="nvasFHb4Qg3l4fAu3OuT-42" value="&amp;nbsp;+ calcularPontuacao() : int" style="text;strokeColor=none;align=left;fillColor=none;html=1;verticalAlign=middle;whiteSpace=wrap;rounded=0;" parent="zkfFHV4jXpPFQw0GAbJ--0" vertex="1">
          <mxGeometry y="448" width="188" height="30" as="geometry" />
        </mxCell>
        <mxCell id="Lo7v7ZP2rtgedo4GOy0i-55" value="&amp;nbsp;+ verificaLimiteDiario() : Boolean" style="text;strokeColor=none;align=left;fillColor=none;html=1;verticalAlign=middle;whiteSpace=wrap;rounded=0;" parent="zkfFHV4jXpPFQw0GAbJ--0" vertex="1">
          <mxGeometry y="478" width="188" height="30" as="geometry" />
        </mxCell>
        <mxCell id="qV7Jv20aMx51wb-Dibgy-11" value="Login" style="swimlane;fontStyle=2;align=center;verticalAlign=top;childLayout=stackLayout;horizontal=1;startSize=26;horizontalStack=0;resizeParent=1;resizeLast=0;collapsible=1;marginBottom=0;rounded=0;shadow=0;strokeWidth=1;" parent="WIyWlLk6GJQsqaUBKTNV-1" vertex="1">
          <mxGeometry x="-903" y="192" width="160" height="150" as="geometry">
            <mxRectangle x="230" y="140" width="160" height="26" as="alternateBounds" />
          </mxGeometry>
        </mxCell>
        <mxCell id="qV7Jv20aMx51wb-Dibgy-12" value="- email: String" style="text;align=left;verticalAlign=top;spacingLeft=4;spacingRight=4;overflow=hidden;rotatable=0;points=[[0,0.5],[1,0.5]];portConstraint=eastwest;" parent="qV7Jv20aMx51wb-Dibgy-11" vertex="1">
          <mxGeometry y="26" width="160" height="26" as="geometry" />
        </mxCell>
        <mxCell id="qV7Jv20aMx51wb-Dibgy-13" value="- senha : String" style="text;align=left;verticalAlign=top;spacingLeft=4;spacingRight=4;overflow=hidden;rotatable=0;points=[[0,0.5],[1,0.5]];portConstraint=eastwest;rounded=0;shadow=0;html=0;" parent="qV7Jv20aMx51wb-Dibgy-11" vertex="1">
          <mxGeometry y="52" width="160" height="26" as="geometry" />
        </mxCell>
        <mxCell id="qV7Jv20aMx51wb-Dibgy-24" value="" style="line;html=1;strokeWidth=1;align=left;verticalAlign=middle;spacingTop=-1;spacingLeft=3;spacingRight=3;rotatable=0;labelPosition=right;points=[];portConstraint=eastwest;" parent="qV7Jv20aMx51wb-Dibgy-11" vertex="1">
          <mxGeometry y="78" width="160" height="8" as="geometry" />
        </mxCell>
        <mxCell id="qV7Jv20aMx51wb-Dibgy-25" value="- logar(): void" style="text;align=left;verticalAlign=top;spacingLeft=4;spacingRight=4;overflow=hidden;rotatable=0;points=[[0,0.5],[1,0.5]];portConstraint=eastwest;" parent="qV7Jv20aMx51wb-Dibgy-11" vertex="1">
          <mxGeometry y="86" width="160" height="26" as="geometry" />
        </mxCell>
        <mxCell id="qV7Jv20aMx51wb-Dibgy-36" value="- alterarSenha(): void" style="text;align=left;verticalAlign=top;spacingLeft=4;spacingRight=4;overflow=hidden;rotatable=0;points=[[0,0.5],[1,0.5]];portConstraint=eastwest;" parent="qV7Jv20aMx51wb-Dibgy-11" vertex="1">
          <mxGeometry y="112" width="160" height="26" as="geometry" />
        </mxCell>
        <mxCell id="qV7Jv20aMx51wb-Dibgy-28" value="Administrador" style="swimlane;fontStyle=2;align=center;verticalAlign=top;childLayout=stackLayout;horizontal=1;startSize=26;horizontalStack=0;resizeParent=1;resizeLast=0;collapsible=1;marginBottom=0;rounded=0;shadow=0;strokeWidth=1;" parent="WIyWlLk6GJQsqaUBKTNV-1" vertex="1">
          <mxGeometry x="-1638" y="192" width="160" height="100" as="geometry">
            <mxRectangle x="230" y="140" width="160" height="26" as="alternateBounds" />
          </mxGeometry>
        </mxCell>
        <mxCell id="qV7Jv20aMx51wb-Dibgy-29" value="+ idUsuario : Int" style="text;align=left;verticalAlign=top;spacingLeft=4;spacingRight=4;overflow=hidden;rotatable=0;points=[[0,0.5],[1,0.5]];portConstraint=eastwest;" parent="qV7Jv20aMx51wb-Dibgy-28" vertex="1">
          <mxGeometry y="26" width="160" height="26" as="geometry" />
        </mxCell>
        <mxCell id="qV7Jv20aMx51wb-Dibgy-32" value="" style="line;html=1;strokeWidth=1;align=left;verticalAlign=middle;spacingTop=-1;spacingLeft=3;spacingRight=3;rotatable=0;labelPosition=right;points=[];portConstraint=eastwest;" parent="qV7Jv20aMx51wb-Dibgy-28" vertex="1">
          <mxGeometry y="52" width="160" height="8" as="geometry" />
        </mxCell>
        <mxCell id="qV7Jv20aMx51wb-Dibgy-34" value="&lt;span style=&quot;text-wrap-mode: nowrap;&quot;&gt;&amp;nbsp;- visualizarReporte() : void&lt;/span&gt;" style="text;html=1;align=left;verticalAlign=middle;whiteSpace=wrap;rounded=0;" parent="qV7Jv20aMx51wb-Dibgy-28" vertex="1">
          <mxGeometry y="60" width="160" height="30" as="geometry" />
        </mxCell>
        <mxCell id="c03Vbg7cdXfMLgZm8cjn-57" style="edgeStyle=orthogonalEdgeStyle;rounded=0;orthogonalLoop=1;jettySize=auto;html=1;entryX=0;entryY=0.5;entryDx=0;entryDy=0;" parent="WIyWlLk6GJQsqaUBKTNV-1" source="qV7Jv20aMx51wb-Dibgy-37" target="nvasFHb4Qg3l4fAu3OuT-40" edge="1">
          <mxGeometry relative="1" as="geometry" />
        </mxCell>
        <mxCell id="c03Vbg7cdXfMLgZm8cjn-58" value="&lt;font style=&quot;font-size: 18px;&quot;&gt;0..10&lt;/font&gt;" style="edgeLabel;html=1;align=center;verticalAlign=middle;resizable=0;points=[];" parent="c03Vbg7cdXfMLgZm8cjn-57" connectable="0" vertex="1">
          <mxGeometry x="-0.9052" y="-2" relative="1" as="geometry">
            <mxPoint x="10" y="-19" as="offset" />
          </mxGeometry>
        </mxCell>
        <mxCell id="c03Vbg7cdXfMLgZm8cjn-59" value="&lt;font style=&quot;font-size: 18px;&quot;&gt;0..180&lt;/font&gt;" style="edgeLabel;html=1;align=center;verticalAlign=middle;resizable=0;points=[];" parent="c03Vbg7cdXfMLgZm8cjn-57" connectable="0" vertex="1">
          <mxGeometry x="0.8824" y="2" relative="1" as="geometry">
            <mxPoint x="-12" y="-17" as="offset" />
          </mxGeometry>
        </mxCell>
        <mxCell id="qV7Jv20aMx51wb-Dibgy-37" value="Lista" style="swimlane;fontStyle=2;align=center;verticalAlign=top;childLayout=stackLayout;horizontal=1;startSize=26;horizontalStack=0;resizeParent=1;resizeLast=0;collapsible=1;marginBottom=0;rounded=0;shadow=0;strokeWidth=1;" parent="WIyWlLk6GJQsqaUBKTNV-1" vertex="1">
          <mxGeometry x="-913" y="533" width="170" height="487" as="geometry">
            <mxRectangle x="230" y="140" width="160" height="26" as="alternateBounds" />
          </mxGeometry>
        </mxCell>
        <mxCell id="c03Vbg7cdXfMLgZm8cjn-5" value="+ id : Int" style="text;align=left;verticalAlign=top;spacingLeft=4;spacingRight=4;overflow=hidden;rotatable=0;points=[[0,0.5],[1,0.5]];portConstraint=eastwest;" parent="qV7Jv20aMx51wb-Dibgy-37" vertex="1">
          <mxGeometry y="26" width="170" height="26" as="geometry" />
        </mxCell>
        <mxCell id="qV7Jv20aMx51wb-Dibgy-39" value="+ nome : String" style="text;align=left;verticalAlign=top;spacingLeft=4;spacingRight=4;overflow=hidden;rotatable=0;points=[[0,0.5],[1,0.5]];portConstraint=eastwest;rounded=0;shadow=0;html=0;" parent="qV7Jv20aMx51wb-Dibgy-37" vertex="1">
          <mxGeometry y="52" width="170" height="26" as="geometry" />
        </mxCell>
        <mxCell id="nvasFHb4Qg3l4fAu3OuT-1" value="+ questoes : List&lt;Questao&gt;" style="text;align=left;verticalAlign=top;spacingLeft=4;spacingRight=4;overflow=hidden;rotatable=0;points=[[0,0.5],[1,0.5]];portConstraint=eastwest;rounded=0;shadow=0;html=0;" parent="qV7Jv20aMx51wb-Dibgy-37" vertex="1">
          <mxGeometry y="78" width="170" height="26" as="geometry" />
        </mxCell>
        <mxCell id="qV7Jv20aMx51wb-Dibgy-45" value="" style="line;html=1;strokeWidth=1;align=left;verticalAlign=middle;spacingTop=-1;spacingLeft=3;spacingRight=3;rotatable=0;labelPosition=right;points=[];portConstraint=eastwest;" parent="qV7Jv20aMx51wb-Dibgy-37" vertex="1">
          <mxGeometry y="104" width="170" height="8" as="geometry" />
        </mxCell>
        <mxCell id="qV7Jv20aMx51wb-Dibgy-61" value="- iniciar() : void" style="text;align=left;verticalAlign=top;spacingLeft=4;spacingRight=4;overflow=hidden;rotatable=0;points=[[0,0.5],[1,0.5]];portConstraint=eastwest;" parent="qV7Jv20aMx51wb-Dibgy-37" vertex="1">
          <mxGeometry y="112" width="170" height="26" as="geometry" />
        </mxCell>
        <mxCell id="c03Vbg7cdXfMLgZm8cjn-56" value="- salvaNome() : void" style="text;align=left;verticalAlign=top;spacingLeft=4;spacingRight=4;overflow=hidden;rotatable=0;points=[[0,0.5],[1,0.5]];portConstraint=eastwest;" parent="qV7Jv20aMx51wb-Dibgy-37" vertex="1">
          <mxGeometry y="138" width="170" height="26" as="geometry" />
        </mxCell>
        <mxCell id="nvasFHb4Qg3l4fAu3OuT-2" value="+ Questao.retornaQuestao()" style="text;align=left;verticalAlign=top;spacingLeft=4;spacingRight=4;overflow=hidden;rotatable=0;points=[[0,0.5],[1,0.5]];portConstraint=eastwest;" parent="qV7Jv20aMx51wb-Dibgy-37" vertex="1">
          <mxGeometry y="164" width="170" height="26" as="geometry" />
        </mxCell>
        <mxCell id="qV7Jv20aMx51wb-Dibgy-46" value="- proximaQuestao() : void" style="text;align=left;verticalAlign=top;spacingLeft=4;spacingRight=4;overflow=hidden;rotatable=0;points=[[0,0.5],[1,0.5]];portConstraint=eastwest;" parent="qV7Jv20aMx51wb-Dibgy-37" vertex="1">
          <mxGeometry y="190" width="170" height="26" as="geometry" />
        </mxCell>
        <mxCell id="qV7Jv20aMx51wb-Dibgy-47" value="- exportarPDF() : FileStream" style="text;align=left;verticalAlign=top;spacingLeft=4;spacingRight=4;overflow=hidden;rotatable=0;points=[[0,0.5],[1,0.5]];portConstraint=eastwest;" parent="qV7Jv20aMx51wb-Dibgy-37" vertex="1">
          <mxGeometry y="216" width="170" height="26" as="geometry" />
        </mxCell>
        <mxCell id="c03Vbg7cdXfMLgZm8cjn-1" value="- compartilharLista() : String" style="text;align=left;verticalAlign=top;spacingLeft=4;spacingRight=4;overflow=hidden;rotatable=0;points=[[0,0.5],[1,0.5]];portConstraint=eastwest;" parent="qV7Jv20aMx51wb-Dibgy-37" vertex="1">
          <mxGeometry y="242" width="170" height="26" as="geometry" />
        </mxCell>
        <mxCell id="qV7Jv20aMx51wb-Dibgy-62" value="- finalizar() : void" style="text;align=left;verticalAlign=top;spacingLeft=4;spacingRight=4;overflow=hidden;rotatable=0;points=[[0,0.5],[1,0.5]];portConstraint=eastwest;" parent="qV7Jv20aMx51wb-Dibgy-37" vertex="1">
          <mxGeometry y="268" width="170" height="26" as="geometry" />
        </mxCell>
        <mxCell id="Lo7v7ZP2rtgedo4GOy0i-36" value="- excluir() : void" style="text;align=left;verticalAlign=top;spacingLeft=4;spacingRight=4;overflow=hidden;rotatable=0;points=[[0,0.5],[1,0.5]];portConstraint=eastwest;" parent="qV7Jv20aMx51wb-Dibgy-37" vertex="1">
          <mxGeometry y="294" width="170" height="26" as="geometry" />
        </mxCell>
        <mxCell id="c03Vbg7cdXfMLgZm8cjn-51" value="- modificaNumeroLista() : int" style="text;align=left;verticalAlign=top;spacingLeft=4;spacingRight=4;overflow=hidden;rotatable=0;points=[[0,0.5],[1,0.5]];portConstraint=eastwest;" parent="qV7Jv20aMx51wb-Dibgy-37" vertex="1">
          <mxGeometry y="320" width="170" height="26" as="geometry" />
        </mxCell>
        <mxCell id="dCW-kg65-Axo8vphUNse-0" value="- criarLista() : void" style="text;align=left;verticalAlign=top;spacingLeft=4;spacingRight=4;overflow=hidden;rotatable=0;points=[[0,0.5],[1,0.5]];portConstraint=eastwest;" parent="qV7Jv20aMx51wb-Dibgy-37" vertex="1">
          <mxGeometry y="346" width="170" height="26" as="geometry" />
        </mxCell>
        <mxCell id="dCW-kg65-Axo8vphUNse-2" value="+ salvarLista() : void" style="text;align=left;verticalAlign=top;spacingLeft=4;spacingRight=4;overflow=hidden;rotatable=0;points=[[0,0.5],[1,0.5]];portConstraint=eastwest;" parent="qV7Jv20aMx51wb-Dibgy-37" vertex="1">
          <mxGeometry y="372" width="170" height="26" as="geometry" />
        </mxCell>
        <mxCell id="dCW-kg65-Axo8vphUNse-3" value="- verificaLimiteNome(): void" style="text;align=left;verticalAlign=top;spacingLeft=4;spacingRight=4;overflow=hidden;rotatable=0;points=[[0,0.5],[1,0.5]];portConstraint=eastwest;" parent="qV7Jv20aMx51wb-Dibgy-37" vertex="1">
          <mxGeometry y="398" width="170" height="26" as="geometry" />
        </mxCell>
        <mxCell id="dCW-kg65-Axo8vphUNse-4" value="- validaLimiteLista() : void" style="text;align=left;verticalAlign=top;spacingLeft=4;spacingRight=4;overflow=hidden;rotatable=0;points=[[0,0.5],[1,0.5]];portConstraint=eastwest;" parent="qV7Jv20aMx51wb-Dibgy-37" vertex="1">
          <mxGeometry y="424" width="170" height="26" as="geometry" />
        </mxCell>
        <mxCell id="dCW-kg65-Axo8vphUNse-5" value="- validaDados() : void" style="text;align=left;verticalAlign=top;spacingLeft=4;spacingRight=4;overflow=hidden;rotatable=0;points=[[0,0.5],[1,0.5]];portConstraint=eastwest;" parent="qV7Jv20aMx51wb-Dibgy-37" vertex="1">
          <mxGeometry y="450" width="170" height="26" as="geometry" />
        </mxCell>
        <mxCell id="c03Vbg7cdXfMLgZm8cjn-65" style="edgeStyle=orthogonalEdgeStyle;rounded=0;orthogonalLoop=1;jettySize=auto;html=1;exitX=0.5;exitY=1;exitDx=0;exitDy=0;entryX=-0.001;entryY=1.157;entryDx=0;entryDy=0;entryPerimeter=0;" parent="WIyWlLk6GJQsqaUBKTNV-1" source="Lo7v7ZP2rtgedo4GOy0i-55" target="c03Vbg7cdXfMLgZm8cjn-61" edge="1">
          <mxGeometry relative="1" as="geometry">
            <mxPoint x="-1203" y="720" as="targetPoint" />
          </mxGeometry>
        </mxCell>
        <mxCell id="c03Vbg7cdXfMLgZm8cjn-71" style="edgeStyle=orthogonalEdgeStyle;rounded=0;orthogonalLoop=1;jettySize=auto;html=1;exitX=1.014;exitY=0.801;exitDx=0;exitDy=0;exitPerimeter=0;entryX=0;entryY=0.5;entryDx=0;entryDy=0;" parent="WIyWlLk6GJQsqaUBKTNV-1" source="qV7Jv20aMx51wb-Dibgy-52" target="nvasFHb4Qg3l4fAu3OuT-4" edge="1">
          <mxGeometry relative="1" as="geometry">
            <Array as="points">
              <mxPoint x="-560" y="1058" />
              <mxPoint x="-560" y="778" />
            </Array>
            <mxPoint x="-523" y="1000" as="sourcePoint" />
            <mxPoint x="-663" y="790" as="targetPoint" />
          </mxGeometry>
        </mxCell>
        <mxCell id="qV7Jv20aMx51wb-Dibgy-48" value="Simulado" style="swimlane;fontStyle=2;align=center;verticalAlign=top;childLayout=stackLayout;horizontal=1;startSize=26;horizontalStack=0;resizeParent=1;resizeLast=0;collapsible=1;marginBottom=0;rounded=0;shadow=0;strokeWidth=1;" parent="WIyWlLk6GJQsqaUBKTNV-1" vertex="1">
          <mxGeometry x="-1165" y="787" width="190" height="354" as="geometry">
            <mxRectangle x="230" y="140" width="160" height="26" as="alternateBounds" />
          </mxGeometry>
        </mxCell>
        <mxCell id="qV7Jv20aMx51wb-Dibgy-49" value="+ id : Int" style="text;align=left;verticalAlign=top;spacingLeft=4;spacingRight=4;overflow=hidden;rotatable=0;points=[[0,0.5],[1,0.5]];portConstraint=eastwest;" parent="qV7Jv20aMx51wb-Dibgy-48" vertex="1">
          <mxGeometry y="26" width="190" height="26" as="geometry" />
        </mxCell>
        <mxCell id="qV7Jv20aMx51wb-Dibgy-50" value="+ nome : String" style="text;align=left;verticalAlign=top;spacingLeft=4;spacingRight=4;overflow=hidden;rotatable=0;points=[[0,0.5],[1,0.5]];portConstraint=eastwest;rounded=0;shadow=0;html=0;" parent="qV7Jv20aMx51wb-Dibgy-48" vertex="1">
          <mxGeometry y="52" width="190" height="28" as="geometry" />
        </mxCell>
        <mxCell id="nvasFHb4Qg3l4fAu3OuT-0" value="+ questoes : List&lt;Questao&gt;" style="text;align=left;verticalAlign=top;spacingLeft=4;spacingRight=4;overflow=hidden;rotatable=0;points=[[0,0.5],[1,0.5]];portConstraint=eastwest;rounded=0;shadow=0;html=0;" parent="qV7Jv20aMx51wb-Dibgy-48" vertex="1">
          <mxGeometry y="80" width="190" height="28" as="geometry" />
        </mxCell>
        <mxCell id="c03Vbg7cdXfMLgZm8cjn-60" value="- enmTipoArea: Enum" style="text;align=left;verticalAlign=top;spacingLeft=4;spacingRight=4;overflow=hidden;rotatable=0;points=[[0,0.5],[1,0.5]];portConstraint=eastwest;rounded=0;shadow=0;html=0;" parent="qV7Jv20aMx51wb-Dibgy-48" vertex="1">
          <mxGeometry y="108" width="190" height="28" as="geometry" />
        </mxCell>
        <mxCell id="c03Vbg7cdXfMLgZm8cjn-61" value="- anos: List&lt;Int&gt;" style="text;align=left;verticalAlign=top;spacingLeft=4;spacingRight=4;overflow=hidden;rotatable=0;points=[[0,0.5],[1,0.5]];portConstraint=eastwest;rounded=0;shadow=0;html=0;" parent="qV7Jv20aMx51wb-Dibgy-48" vertex="1">
          <mxGeometry y="136" width="190" height="28" as="geometry" />
        </mxCell>
        <mxCell id="qV7Jv20aMx51wb-Dibgy-51" value="" style="line;html=1;strokeWidth=1;align=left;verticalAlign=middle;spacingTop=-1;spacingLeft=3;spacingRight=3;rotatable=0;labelPosition=right;points=[];portConstraint=eastwest;" parent="qV7Jv20aMx51wb-Dibgy-48" vertex="1">
          <mxGeometry y="164" width="190" height="8" as="geometry" />
        </mxCell>
        <mxCell id="c03Vbg7cdXfMLgZm8cjn-62" value="- salvarInformacoes() : void" style="text;align=left;verticalAlign=top;spacingLeft=4;spacingRight=4;overflow=hidden;rotatable=0;points=[[0,0.5],[1,0.5]];portConstraint=eastwest;" parent="qV7Jv20aMx51wb-Dibgy-48" vertex="1">
          <mxGeometry y="172" width="190" height="26" as="geometry" />
        </mxCell>
        <mxCell id="c03Vbg7cdXfMLgZm8cjn-52" value="- modificaNumeroSimulado() : int" style="text;align=left;verticalAlign=top;spacingLeft=4;spacingRight=4;overflow=hidden;rotatable=0;points=[[0,0.5],[1,0.5]];portConstraint=eastwest;" parent="qV7Jv20aMx51wb-Dibgy-48" vertex="1">
          <mxGeometry y="198" width="190" height="26" as="geometry" />
        </mxCell>
        <mxCell id="qV7Jv20aMx51wb-Dibgy-53" value="- iniciar() : void" style="text;align=left;verticalAlign=top;spacingLeft=4;spacingRight=4;overflow=hidden;rotatable=0;points=[[0,0.5],[1,0.5]];portConstraint=eastwest;" parent="qV7Jv20aMx51wb-Dibgy-48" vertex="1">
          <mxGeometry y="224" width="190" height="26" as="geometry" />
        </mxCell>
        <mxCell id="qV7Jv20aMx51wb-Dibgy-52" value="+ Questao.retornaQuestao()" style="text;align=left;verticalAlign=top;spacingLeft=4;spacingRight=4;overflow=hidden;rotatable=0;points=[[0,0.5],[1,0.5]];portConstraint=eastwest;" parent="qV7Jv20aMx51wb-Dibgy-48" vertex="1">
          <mxGeometry y="250" width="190" height="26" as="geometry" />
        </mxCell>
        <mxCell id="qV7Jv20aMx51wb-Dibgy-54" value="- finalizar() : void" style="text;align=left;verticalAlign=top;spacingLeft=4;spacingRight=4;overflow=hidden;rotatable=0;points=[[0,0.5],[1,0.5]];portConstraint=eastwest;" parent="qV7Jv20aMx51wb-Dibgy-48" vertex="1">
          <mxGeometry y="276" width="190" height="26" as="geometry" />
        </mxCell>
        <mxCell id="Lo7v7ZP2rtgedo4GOy0i-37" value="- excluir() : void" style="text;align=left;verticalAlign=top;spacingLeft=4;spacingRight=4;overflow=hidden;rotatable=0;points=[[0,0.5],[1,0.5]];portConstraint=eastwest;" parent="qV7Jv20aMx51wb-Dibgy-48" vertex="1">
          <mxGeometry y="302" width="190" height="26" as="geometry" />
        </mxCell>
        <mxCell id="qV7Jv20aMx51wb-Dibgy-55" value="- calcularResultado() : void" style="text;align=left;verticalAlign=top;spacingLeft=4;spacingRight=4;overflow=hidden;rotatable=0;points=[[0,0.5],[1,0.5]];portConstraint=eastwest;" parent="qV7Jv20aMx51wb-Dibgy-48" vertex="1">
          <mxGeometry y="328" width="190" height="26" as="geometry" />
        </mxCell>
        <mxCell id="Lo7v7ZP2rtgedo4GOy0i-45" style="edgeStyle=orthogonalEdgeStyle;rounded=0;orthogonalLoop=1;jettySize=auto;html=1;" parent="WIyWlLk6GJQsqaUBKTNV-1" source="qV7Jv20aMx51wb-Dibgy-56" target="Lo7v7ZP2rtgedo4GOy0i-42" edge="1">
          <mxGeometry relative="1" as="geometry" />
        </mxCell>
        <mxCell id="qV7Jv20aMx51wb-Dibgy-56" value="Questao" style="swimlane;fontStyle=2;align=center;verticalAlign=top;childLayout=stackLayout;horizontal=1;startSize=26;horizontalStack=0;resizeParent=1;resizeLast=0;collapsible=1;marginBottom=0;rounded=0;shadow=0;strokeWidth=1;" parent="WIyWlLk6GJQsqaUBKTNV-1" vertex="1">
          <mxGeometry x="-498" y="393" width="240" height="507" as="geometry">
            <mxRectangle x="230" y="140" width="160" height="26" as="alternateBounds" />
          </mxGeometry>
        </mxCell>
        <mxCell id="qV7Jv20aMx51wb-Dibgy-57" value="+ title : String" style="text;align=left;verticalAlign=top;spacingLeft=4;spacingRight=4;overflow=hidden;rotatable=0;points=[[0,0.5],[1,0.5]];portConstraint=eastwest;" parent="qV7Jv20aMx51wb-Dibgy-56" vertex="1">
          <mxGeometry y="26" width="240" height="26" as="geometry" />
        </mxCell>
        <mxCell id="qV7Jv20aMx51wb-Dibgy-58" value="+ index : Int" style="text;align=left;verticalAlign=top;spacingLeft=4;spacingRight=4;overflow=hidden;rotatable=0;points=[[0,0.5],[1,0.5]];portConstraint=eastwest;rounded=0;shadow=0;html=0;" parent="qV7Jv20aMx51wb-Dibgy-56" vertex="1">
          <mxGeometry y="52" width="240" height="26" as="geometry" />
        </mxCell>
        <mxCell id="qV7Jv20aMx51wb-Dibgy-64" value="+ year : Int" style="text;align=left;verticalAlign=top;spacingLeft=4;spacingRight=4;overflow=hidden;rotatable=0;points=[[0,0.5],[1,0.5]];portConstraint=eastwest;rounded=0;shadow=0;html=0;" parent="qV7Jv20aMx51wb-Dibgy-56" vertex="1">
          <mxGeometry y="78" width="240" height="26" as="geometry" />
        </mxCell>
        <mxCell id="qV7Jv20aMx51wb-Dibgy-65" value="+ language : String" style="text;align=left;verticalAlign=top;spacingLeft=4;spacingRight=4;overflow=hidden;rotatable=0;points=[[0,0.5],[1,0.5]];portConstraint=eastwest;rounded=0;shadow=0;html=0;" parent="qV7Jv20aMx51wb-Dibgy-56" vertex="1">
          <mxGeometry y="104" width="240" height="26" as="geometry" />
        </mxCell>
        <mxCell id="qV7Jv20aMx51wb-Dibgy-66" value="+ discipline : String" style="text;align=left;verticalAlign=top;spacingLeft=4;spacingRight=4;overflow=hidden;rotatable=0;points=[[0,0.5],[1,0.5]];portConstraint=eastwest;rounded=0;shadow=0;html=0;" parent="qV7Jv20aMx51wb-Dibgy-56" vertex="1">
          <mxGeometry y="130" width="240" height="26" as="geometry" />
        </mxCell>
        <mxCell id="nvasFHb4Qg3l4fAu3OuT-37" value="+ context : String" style="text;align=left;verticalAlign=top;spacingLeft=4;spacingRight=4;overflow=hidden;rotatable=0;points=[[0,0.5],[1,0.5]];portConstraint=eastwest;rounded=0;shadow=0;html=0;" parent="qV7Jv20aMx51wb-Dibgy-56" vertex="1">
          <mxGeometry y="156" width="240" height="26" as="geometry" />
        </mxCell>
        <mxCell id="nvasFHb4Qg3l4fAu3OuT-38" value="+ files : String" style="text;align=left;verticalAlign=top;spacingLeft=4;spacingRight=4;overflow=hidden;rotatable=0;points=[[0,0.5],[1,0.5]];portConstraint=eastwest;rounded=0;shadow=0;html=0;" parent="qV7Jv20aMx51wb-Dibgy-56" vertex="1">
          <mxGeometry y="182" width="240" height="26" as="geometry" />
        </mxCell>
        <mxCell id="c03Vbg7cdXfMLgZm8cjn-9" value="+ correctAlternative : Char" style="text;align=left;verticalAlign=top;spacingLeft=4;spacingRight=4;overflow=hidden;rotatable=0;points=[[0,0.5],[1,0.5]];portConstraint=eastwest;rounded=0;shadow=0;html=0;" parent="qV7Jv20aMx51wb-Dibgy-56" vertex="1">
          <mxGeometry y="208" width="240" height="26" as="geometry" />
        </mxCell>
        <mxCell id="c03Vbg7cdXfMLgZm8cjn-10" value="+ alternativesIntroduction : String" style="text;align=left;verticalAlign=top;spacingLeft=4;spacingRight=4;overflow=hidden;rotatable=0;points=[[0,0.5],[1,0.5]];portConstraint=eastwest;rounded=0;shadow=0;html=0;" parent="qV7Jv20aMx51wb-Dibgy-56" vertex="1">
          <mxGeometry y="234" width="240" height="26" as="geometry" />
        </mxCell>
        <mxCell id="Lo7v7ZP2rtgedo4GOy0i-38" value="+ alternatives : List&lt;Alternatives&gt;" style="text;align=left;verticalAlign=top;spacingLeft=4;spacingRight=4;overflow=hidden;rotatable=0;points=[[0,0.5],[1,0.5]];portConstraint=eastwest;rounded=0;shadow=0;html=0;" parent="qV7Jv20aMx51wb-Dibgy-56" vertex="1">
          <mxGeometry y="260" width="240" height="26" as="geometry" />
        </mxCell>
        <mxCell id="nvasFHb4Qg3l4fAu3OuT-40" value="+ bExibida : Boolean" style="text;align=left;verticalAlign=top;spacingLeft=4;spacingRight=4;overflow=hidden;rotatable=0;points=[[0,0.5],[1,0.5]];portConstraint=eastwest;rounded=0;shadow=0;html=0;" parent="qV7Jv20aMx51wb-Dibgy-56" vertex="1">
          <mxGeometry y="286" width="240" height="26" as="geometry" />
        </mxCell>
        <mxCell id="Lo7v7ZP2rtgedo4GOy0i-51" value="+ avaliacaoUsuarioQuestao : Int" style="text;align=left;verticalAlign=top;spacingLeft=4;spacingRight=4;overflow=hidden;rotatable=0;points=[[0,0.5],[1,0.5]];portConstraint=eastwest;rounded=0;shadow=0;html=0;" parent="qV7Jv20aMx51wb-Dibgy-56" vertex="1">
          <mxGeometry y="312" width="240" height="26" as="geometry" />
        </mxCell>
        <mxCell id="qV7Jv20aMx51wb-Dibgy-59" value="" style="line;html=1;strokeWidth=1;align=left;verticalAlign=middle;spacingTop=-1;spacingLeft=3;spacingRight=3;rotatable=0;labelPosition=right;points=[];portConstraint=eastwest;" parent="qV7Jv20aMx51wb-Dibgy-56" vertex="1">
          <mxGeometry y="338" width="240" height="8" as="geometry" />
        </mxCell>
        <mxCell id="nvasFHb4Qg3l4fAu3OuT-39" value="+ buscarquestao() : String" style="text;align=left;verticalAlign=top;spacingLeft=4;spacingRight=4;overflow=hidden;rotatable=0;points=[[0,0.5],[1,0.5]];portConstraint=eastwest;" parent="qV7Jv20aMx51wb-Dibgy-56" vertex="1">
          <mxGeometry y="346" width="240" height="26" as="geometry" />
        </mxCell>
        <mxCell id="nvasFHb4Qg3l4fAu3OuT-4" value="+ retornaQuestao() : questao" style="text;align=left;verticalAlign=top;spacingLeft=4;spacingRight=4;overflow=hidden;rotatable=0;points=[[0,0.5],[1,0.5]];portConstraint=eastwest;" parent="qV7Jv20aMx51wb-Dibgy-56" vertex="1">
          <mxGeometry y="372" width="240" height="26" as="geometry" />
        </mxCell>
        <mxCell id="qV7Jv20aMx51wb-Dibgy-60" value="- validaAcerto() : Boolean" style="text;align=left;verticalAlign=top;spacingLeft=4;spacingRight=4;overflow=hidden;rotatable=0;points=[[0,0.5],[1,0.5]];portConstraint=eastwest;" parent="qV7Jv20aMx51wb-Dibgy-56" vertex="1">
          <mxGeometry y="398" width="240" height="26" as="geometry" />
        </mxCell>
        <mxCell id="nvasFHb4Qg3l4fAu3OuT-5" value="+ adicionarNaLista() : void" style="text;align=left;verticalAlign=top;spacingLeft=4;spacingRight=4;overflow=hidden;rotatable=0;points=[[0,0.5],[1,0.5]];portConstraint=eastwest;" parent="qV7Jv20aMx51wb-Dibgy-56" vertex="1">
          <mxGeometry y="424" width="240" height="26" as="geometry" />
        </mxCell>
        <mxCell id="nvasFHb4Qg3l4fAu3OuT-36" value="- verificarAnexo() : Boolean" style="text;align=left;verticalAlign=top;spacingLeft=4;spacingRight=4;overflow=hidden;rotatable=0;points=[[0,0.5],[1,0.5]];portConstraint=eastwest;" parent="qV7Jv20aMx51wb-Dibgy-56" vertex="1">
          <mxGeometry y="450" width="240" height="26" as="geometry" />
        </mxCell>
        <mxCell id="c03Vbg7cdXfMLgZm8cjn-2" value="- avaliarQuestao() : Int" style="text;align=left;verticalAlign=top;spacingLeft=4;spacingRight=4;overflow=hidden;rotatable=0;points=[[0,0.5],[1,0.5]];portConstraint=eastwest;" parent="qV7Jv20aMx51wb-Dibgy-56" vertex="1">
          <mxGeometry y="476" width="240" height="26" as="geometry" />
        </mxCell>
        <mxCell id="qV7Jv20aMx51wb-Dibgy-67" value="AreaInteresse" style="swimlane;fontStyle=2;align=center;verticalAlign=top;childLayout=stackLayout;horizontal=1;startSize=26;horizontalStack=0;resizeParent=1;resizeLast=0;collapsible=1;marginBottom=0;rounded=0;shadow=0;strokeWidth=1;" parent="WIyWlLk6GJQsqaUBKTNV-1" vertex="1">
          <mxGeometry x="-928" y="354" width="200" height="170" as="geometry">
            <mxRectangle x="230" y="140" width="160" height="26" as="alternateBounds" />
          </mxGeometry>
        </mxCell>
        <mxCell id="qV7Jv20aMx51wb-Dibgy-68" value="+ id : Int" style="text;align=left;verticalAlign=top;spacingLeft=4;spacingRight=4;overflow=hidden;rotatable=0;points=[[0,0.5],[1,0.5]];portConstraint=eastwest;" parent="qV7Jv20aMx51wb-Dibgy-67" vertex="1">
          <mxGeometry y="26" width="200" height="26" as="geometry" />
        </mxCell>
        <mxCell id="qV7Jv20aMx51wb-Dibgy-69" value="+ nome : String" style="text;align=left;verticalAlign=top;spacingLeft=4;spacingRight=4;overflow=hidden;rotatable=0;points=[[0,0.5],[1,0.5]];portConstraint=eastwest;rounded=0;shadow=0;html=0;" parent="qV7Jv20aMx51wb-Dibgy-67" vertex="1">
          <mxGeometry y="52" width="200" height="26" as="geometry" />
        </mxCell>
        <mxCell id="nvasFHb4Qg3l4fAu3OuT-33" value="+ enmTipoArea: Enum" style="text;align=left;verticalAlign=top;spacingLeft=4;spacingRight=4;overflow=hidden;rotatable=0;points=[[0,0.5],[1,0.5]];portConstraint=eastwest;rounded=0;shadow=0;html=0;" parent="qV7Jv20aMx51wb-Dibgy-67" vertex="1">
          <mxGeometry y="78" width="200" height="26" as="geometry" />
        </mxCell>
        <mxCell id="qV7Jv20aMx51wb-Dibgy-70" value="" style="line;html=1;strokeWidth=1;align=left;verticalAlign=middle;spacingTop=-1;spacingLeft=3;spacingRight=3;rotatable=0;labelPosition=right;points=[];portConstraint=eastwest;" parent="qV7Jv20aMx51wb-Dibgy-67" vertex="1">
          <mxGeometry y="104" width="200" height="8" as="geometry" />
        </mxCell>
        <mxCell id="qV7Jv20aMx51wb-Dibgy-71" value="+ atualizarAreaInteresse(): void" style="text;align=left;verticalAlign=top;spacingLeft=4;spacingRight=4;overflow=hidden;rotatable=0;points=[[0,0.5],[1,0.5]];portConstraint=eastwest;" parent="qV7Jv20aMx51wb-Dibgy-67" vertex="1">
          <mxGeometry y="112" width="200" height="26" as="geometry" />
        </mxCell>
        <mxCell id="nvasFHb4Qg3l4fAu3OuT-44" value="+ obterAreaInteresse(): void" style="text;align=left;verticalAlign=top;spacingLeft=4;spacingRight=4;overflow=hidden;rotatable=0;points=[[0,0.5],[1,0.5]];portConstraint=eastwest;" parent="qV7Jv20aMx51wb-Dibgy-67" vertex="1">
          <mxGeometry y="138" width="200" height="26" as="geometry" />
        </mxCell>
        <mxCell id="Qj0H2ry5J98sTHLXyiYv-2" style="edgeStyle=orthogonalEdgeStyle;rounded=0;orthogonalLoop=1;jettySize=auto;html=1;entryX=0.25;entryY=1;entryDx=0;entryDy=0;" parent="WIyWlLk6GJQsqaUBKTNV-1" source="qV7Jv20aMx51wb-Dibgy-75" target="Lo7v7ZP2rtgedo4GOy0i-55" edge="1">
          <mxGeometry relative="1" as="geometry">
            <mxPoint x="-1281" y="550" as="targetPoint" />
          </mxGeometry>
        </mxCell>
        <mxCell id="qV7Jv20aMx51wb-Dibgy-75" value="Ajuda" style="swimlane;fontStyle=2;align=center;verticalAlign=top;childLayout=stackLayout;horizontal=1;startSize=26;horizontalStack=0;resizeParent=1;resizeLast=0;collapsible=1;marginBottom=0;rounded=0;shadow=0;strokeWidth=1;" parent="WIyWlLk6GJQsqaUBKTNV-1" vertex="1">
          <mxGeometry x="-1513" y="575" width="160" height="195" as="geometry">
            <mxRectangle x="230" y="140" width="160" height="26" as="alternateBounds" />
          </mxGeometry>
        </mxCell>
        <mxCell id="qV7Jv20aMx51wb-Dibgy-76" value="+ id : Int" style="text;align=left;verticalAlign=top;spacingLeft=4;spacingRight=4;overflow=hidden;rotatable=0;points=[[0,0.5],[1,0.5]];portConstraint=eastwest;" parent="qV7Jv20aMx51wb-Dibgy-75" vertex="1">
          <mxGeometry y="26" width="160" height="26" as="geometry" />
        </mxCell>
        <mxCell id="qV7Jv20aMx51wb-Dibgy-77" value="+ nome : String" style="text;align=left;verticalAlign=top;spacingLeft=4;spacingRight=4;overflow=hidden;rotatable=0;points=[[0,0.5],[1,0.5]];portConstraint=eastwest;rounded=0;shadow=0;html=0;" parent="qV7Jv20aMx51wb-Dibgy-75" vertex="1">
          <mxGeometry y="52" width="160" height="26" as="geometry" />
        </mxCell>
        <mxCell id="qV7Jv20aMx51wb-Dibgy-85" value="+ emailUsuario : String" style="text;align=left;verticalAlign=top;spacingLeft=4;spacingRight=4;overflow=hidden;rotatable=0;points=[[0,0.5],[1,0.5]];portConstraint=eastwest;rounded=0;shadow=0;html=0;" parent="qV7Jv20aMx51wb-Dibgy-75" vertex="1">
          <mxGeometry y="78" width="160" height="26" as="geometry" />
        </mxCell>
        <mxCell id="qV7Jv20aMx51wb-Dibgy-86" value="+ Data : Date" style="text;align=left;verticalAlign=top;spacingLeft=4;spacingRight=4;overflow=hidden;rotatable=0;points=[[0,0.5],[1,0.5]];portConstraint=eastwest;rounded=0;shadow=0;html=0;" parent="qV7Jv20aMx51wb-Dibgy-75" vertex="1">
          <mxGeometry y="104" width="160" height="26" as="geometry" />
        </mxCell>
        <mxCell id="c03Vbg7cdXfMLgZm8cjn-4" value="+ descricaoReporte : String" style="text;align=left;verticalAlign=top;spacingLeft=4;spacingRight=4;overflow=hidden;rotatable=0;points=[[0,0.5],[1,0.5]];portConstraint=eastwest;rounded=0;shadow=0;html=0;" parent="qV7Jv20aMx51wb-Dibgy-75" vertex="1">
          <mxGeometry y="130" width="160" height="26" as="geometry" />
        </mxCell>
        <mxCell id="qV7Jv20aMx51wb-Dibgy-78" value="" style="line;html=1;strokeWidth=1;align=left;verticalAlign=middle;spacingTop=-1;spacingLeft=3;spacingRight=3;rotatable=0;labelPosition=right;points=[];portConstraint=eastwest;" parent="qV7Jv20aMx51wb-Dibgy-75" vertex="1">
          <mxGeometry y="156" width="160" height="8" as="geometry" />
        </mxCell>
        <mxCell id="c03Vbg7cdXfMLgZm8cjn-3" value="- salvaReporte() : void" style="text;align=left;verticalAlign=top;spacingLeft=4;spacingRight=4;overflow=hidden;rotatable=0;points=[[0,0.5],[1,0.5]];portConstraint=eastwest;" parent="qV7Jv20aMx51wb-Dibgy-75" vertex="1">
          <mxGeometry y="164" width="160" height="26" as="geometry" />
        </mxCell>
        <mxCell id="c03Vbg7cdXfMLgZm8cjn-23" style="edgeStyle=orthogonalEdgeStyle;rounded=0;orthogonalLoop=1;jettySize=auto;html=1;exitX=1;exitY=0.5;exitDx=0;exitDy=0;entryX=-0.011;entryY=0.214;entryDx=0;entryDy=0;entryPerimeter=0;" parent="WIyWlLk6GJQsqaUBKTNV-1" source="nvasFHb4Qg3l4fAu3OuT-33" target="nvasFHb4Qg3l4fAu3OuT-38" edge="1">
          <mxGeometry relative="1" as="geometry">
            <mxPoint x="-593" y="450" as="targetPoint" />
            <Array as="points">
              <mxPoint x="-613" y="445" />
              <mxPoint x="-613" y="581" />
            </Array>
          </mxGeometry>
        </mxCell>
        <mxCell id="c03Vbg7cdXfMLgZm8cjn-37" value="&lt;font style=&quot;font-size: 18px;&quot;&gt;0&lt;/font&gt;" style="edgeLabel;html=1;align=center;verticalAlign=middle;resizable=0;points=[];" parent="c03Vbg7cdXfMLgZm8cjn-23" connectable="0" vertex="1">
          <mxGeometry x="-0.882" y="2" relative="1" as="geometry">
            <mxPoint x="14" y="-23" as="offset" />
          </mxGeometry>
        </mxCell>
        <mxCell id="c03Vbg7cdXfMLgZm8cjn-38" value="&lt;font style=&quot;font-size: 18px;&quot;&gt;1..*&lt;/font&gt;" style="edgeLabel;html=1;align=center;verticalAlign=middle;resizable=0;points=[];" parent="c03Vbg7cdXfMLgZm8cjn-23" connectable="0" vertex="1">
          <mxGeometry x="0.9439" y="-2" relative="1" as="geometry">
            <mxPoint x="-4" y="-20" as="offset" />
          </mxGeometry>
        </mxCell>
        <mxCell id="c03Vbg7cdXfMLgZm8cjn-34" style="edgeStyle=orthogonalEdgeStyle;rounded=0;orthogonalLoop=1;jettySize=auto;html=1;exitX=1;exitY=0.5;exitDx=0;exitDy=0;" parent="WIyWlLk6GJQsqaUBKTNV-1" source="c03Vbg7cdXfMLgZm8cjn-8" edge="1">
          <mxGeometry relative="1" as="geometry">
            <Array as="points">
              <mxPoint x="-950" y="470" />
            </Array>
            <mxPoint x="-930" y="470" as="targetPoint" />
          </mxGeometry>
        </mxCell>
        <mxCell id="c03Vbg7cdXfMLgZm8cjn-36" value="&lt;font style=&quot;font-size: 18px;&quot;&gt;1&lt;/font&gt;" style="edgeLabel;html=1;align=center;verticalAlign=middle;resizable=0;points=[];" parent="c03Vbg7cdXfMLgZm8cjn-34" connectable="0" vertex="1">
          <mxGeometry x="-0.699" y="-1" relative="1" as="geometry">
            <mxPoint x="173" y="-26" as="offset" />
          </mxGeometry>
        </mxCell>
        <mxCell id="c03Vbg7cdXfMLgZm8cjn-69" value="&lt;font style=&quot;font-size: 18px;&quot;&gt;1&lt;/font&gt;" style="edgeLabel;html=1;align=center;verticalAlign=middle;resizable=0;points=[];" parent="WIyWlLk6GJQsqaUBKTNV-1" connectable="0" vertex="1">
          <mxGeometry x="-1260" y="559" as="geometry" />
        </mxCell>
        <mxCell id="c03Vbg7cdXfMLgZm8cjn-72" value="&lt;font style=&quot;font-size: 18px;&quot;&gt;1..180&lt;/font&gt;" style="edgeLabel;html=1;align=center;verticalAlign=middle;resizable=0;points=[];" parent="WIyWlLk6GJQsqaUBKTNV-1" connectable="0" vertex="1">
          <mxGeometry x="-527" y="761" as="geometry" />
        </mxCell>
        <mxCell id="c03Vbg7cdXfMLgZm8cjn-73" value="&lt;font style=&quot;font-size: 18px;&quot;&gt;0..10&lt;/font&gt;" style="edgeLabel;html=1;align=center;verticalAlign=middle;resizable=0;points=[];" parent="WIyWlLk6GJQsqaUBKTNV-1" connectable="0" vertex="1">
          <mxGeometry x="-922" y="1040" as="geometry" />
        </mxCell>
        <mxCell id="Qj0H2ry5J98sTHLXyiYv-1" style="edgeStyle=orthogonalEdgeStyle;rounded=0;orthogonalLoop=1;jettySize=auto;html=1;entryX=0.5;entryY=1;entryDx=0;entryDy=0;" parent="WIyWlLk6GJQsqaUBKTNV-1" source="qV7Jv20aMx51wb-Dibgy-85" target="qV7Jv20aMx51wb-Dibgy-28" edge="1">
          <mxGeometry relative="1" as="geometry" />
        </mxCell>
        <mxCell id="Qj0H2ry5J98sTHLXyiYv-3" value="&lt;font style=&quot;font-size: 18px;&quot;&gt;1&lt;/font&gt;" style="edgeLabel;html=1;align=center;verticalAlign=middle;resizable=0;points=[];" parent="WIyWlLk6GJQsqaUBKTNV-1" connectable="0" vertex="1">
          <mxGeometry x="-1130" y="445" as="geometry" />
        </mxCell>
        <mxCell id="Qj0H2ry5J98sTHLXyiYv-4" value="&lt;font style=&quot;font-size: 18px;&quot;&gt;0..1&lt;/font&gt;" style="edgeLabel;html=1;align=center;verticalAlign=middle;resizable=0;points=[];" parent="WIyWlLk6GJQsqaUBKTNV-1" connectable="0" vertex="1">
          <mxGeometry x="-1121.3300000000002" y="492" as="geometry">
            <mxPoint x="-190" y="67" as="offset" />
          </mxGeometry>
        </mxCell>
        <mxCell id="Qj0H2ry5J98sTHLXyiYv-5" value="&lt;font style=&quot;font-size: 18px;&quot;&gt;0..*&lt;/font&gt;" style="edgeLabel;html=1;align=center;verticalAlign=middle;resizable=0;points=[];" parent="WIyWlLk6GJQsqaUBKTNV-1" connectable="0" vertex="1">
          <mxGeometry x="-1213" y="620" as="geometry">
            <mxPoint x="-317" y="32" as="offset" />
          </mxGeometry>
        </mxCell>
        <mxCell id="Qj0H2ry5J98sTHLXyiYv-6" value="&lt;font style=&quot;font-size: 18px;&quot;&gt;0..*&lt;/font&gt;" style="edgeLabel;html=1;align=center;verticalAlign=middle;resizable=0;points=[];" parent="WIyWlLk6GJQsqaUBKTNV-1" connectable="0" vertex="1">
          <mxGeometry x="-1017" y="626" as="geometry">
            <mxPoint x="-317" y="32" as="offset" />
          </mxGeometry>
        </mxCell>
        <mxCell id="Lo7v7ZP2rtgedo4GOy0i-2" value="" style="endArrow=classic;html=1;rounded=0;exitX=0.992;exitY=0.413;exitDx=0;exitDy=0;exitPerimeter=0;entryX=0.003;entryY=0.354;entryDx=0;entryDy=0;entryPerimeter=0;strokeColor=light-dark(#000000,#FFFFFF);" parent="WIyWlLk6GJQsqaUBKTNV-1" source="qV7Jv20aMx51wb-Dibgy-32" target="qV7Jv20aMx51wb-Dibgy-9" edge="1">
          <mxGeometry width="50" height="50" relative="1" as="geometry">
            <mxPoint x="-1243" y="270" as="sourcePoint" />
            <mxPoint x="-1193" y="220" as="targetPoint" />
          </mxGeometry>
        </mxCell>
        <mxCell id="Lo7v7ZP2rtgedo4GOy0i-4" value="" style="triangle;whiteSpace=wrap;html=1;fillColor=light-dark(#FFFFFF,#FFFFFF);" parent="WIyWlLk6GJQsqaUBKTNV-1" vertex="1">
          <mxGeometry x="-1336" y="243" width="7.5" height="10" as="geometry" />
        </mxCell>
        <mxCell id="Lo7v7ZP2rtgedo4GOy0i-8" value="" style="html=1;whiteSpace=wrap;aspect=fixed;shape=isoRectangle;strokeColor=light-dark(#000000,#000000);fillColor=light-dark(#000000,#000000);" parent="WIyWlLk6GJQsqaUBKTNV-1" vertex="1">
          <mxGeometry x="-1139" y="460" width="33.33" height="20" as="geometry" />
        </mxCell>
        <mxCell id="c03Vbg7cdXfMLgZm8cjn-46" style="edgeStyle=orthogonalEdgeStyle;rounded=0;orthogonalLoop=1;jettySize=auto;html=1;exitX=0.75;exitY=1;exitDx=0;exitDy=0;entryX=-0.002;entryY=0.217;entryDx=0;entryDy=0;entryPerimeter=0;" parent="WIyWlLk6GJQsqaUBKTNV-1" source="Lo7v7ZP2rtgedo4GOy0i-55" target="qV7Jv20aMx51wb-Dibgy-61" edge="1">
          <mxGeometry relative="1" as="geometry">
            <mxPoint x="-1013" y="610" as="targetPoint" />
          </mxGeometry>
        </mxCell>
        <mxCell id="c03Vbg7cdXfMLgZm8cjn-49" value="&lt;font style=&quot;font-size: 18px;&quot;&gt;1&lt;/font&gt;" style="edgeLabel;html=1;align=center;verticalAlign=middle;resizable=0;points=[];" parent="c03Vbg7cdXfMLgZm8cjn-46" connectable="0" vertex="1">
          <mxGeometry x="0.9364" relative="1" as="geometry">
            <mxPoint x="-242" y="-125" as="offset" />
          </mxGeometry>
        </mxCell>
        <mxCell id="c03Vbg7cdXfMLgZm8cjn-50" value="&lt;font style=&quot;font-size: 18px;&quot;&gt;0..10&lt;/font&gt;" style="edgeLabel;html=1;align=center;verticalAlign=middle;resizable=0;points=[];" parent="c03Vbg7cdXfMLgZm8cjn-46" connectable="0" vertex="1">
          <mxGeometry x="-0.7365" y="-1" relative="1" as="geometry">
            <mxPoint x="249" y="32" as="offset" />
          </mxGeometry>
        </mxCell>
        <mxCell id="Lo7v7ZP2rtgedo4GOy0i-9" value="" style="html=1;whiteSpace=wrap;aspect=fixed;shape=isoRectangle;strokeColor=light-dark(#000000,#000000);fillColor=light-dark(#000000,#000000);direction=south;" parent="WIyWlLk6GJQsqaUBKTNV-1" vertex="1">
          <mxGeometry x="-1196.9950000000001" y="545.995" width="20" height="33.33" as="geometry" />
        </mxCell>
        <mxCell id="Lo7v7ZP2rtgedo4GOy0i-10" value="" style="html=1;whiteSpace=wrap;aspect=fixed;shape=isoRectangle;strokeColor=light-dark(#000000,#000000);fillColor=light-dark(#000000,#000000);direction=south;" parent="WIyWlLk6GJQsqaUBKTNV-1" vertex="1">
          <mxGeometry x="-1243.9950000000001" y="545.995" width="20" height="33.33" as="geometry" />
        </mxCell>
        <mxCell id="Lo7v7ZP2rtgedo4GOy0i-11" value="" style="html=1;whiteSpace=wrap;aspect=fixed;shape=isoRectangle;strokeColor=light-dark(#000000,#000000);fillColor=light-dark(#000000,#000000);" parent="WIyWlLk6GJQsqaUBKTNV-1" vertex="1">
          <mxGeometry x="-727" y="435" width="33.33" height="20" as="geometry" />
        </mxCell>
        <mxCell id="Lo7v7ZP2rtgedo4GOy0i-15" value="" style="triangle;whiteSpace=wrap;html=1;fillColor=#000000;" parent="WIyWlLk6GJQsqaUBKTNV-1" vertex="1">
          <mxGeometry x="-1040.25" y="435" width="15" height="20" as="geometry" />
        </mxCell>
        <mxCell id="Lo7v7ZP2rtgedo4GOy0i-17" value="" style="triangle;whiteSpace=wrap;html=1;fillColor=#000000;" parent="WIyWlLk6GJQsqaUBKTNV-1" vertex="1">
          <mxGeometry x="-1040.5" y="625" width="15" height="20" as="geometry" />
        </mxCell>
        <mxCell id="Lo7v7ZP2rtgedo4GOy0i-18" value="Possui" style="text;html=1;align=center;verticalAlign=middle;whiteSpace=wrap;rounded=0;" parent="WIyWlLk6GJQsqaUBKTNV-1" vertex="1">
          <mxGeometry x="-1093" y="621" width="60" height="30" as="geometry" />
        </mxCell>
        <mxCell id="Lo7v7ZP2rtgedo4GOy0i-20" value="" style="triangle;whiteSpace=wrap;html=1;fillColor=#000000;direction=south;" parent="WIyWlLk6GJQsqaUBKTNV-1" vertex="1">
          <mxGeometry x="-1233" y="800" width="20" height="15" as="geometry" />
        </mxCell>
        <mxCell id="Lo7v7ZP2rtgedo4GOy0i-21" value="Possui" style="text;html=1;align=center;verticalAlign=middle;whiteSpace=wrap;rounded=0;rotation=90;" parent="WIyWlLk6GJQsqaUBKTNV-1" vertex="1">
          <mxGeometry x="-1253" y="757" width="60" height="30" as="geometry" />
        </mxCell>
        <mxCell id="Lo7v7ZP2rtgedo4GOy0i-22" value="" style="triangle;whiteSpace=wrap;html=1;fillColor=#000000;" parent="WIyWlLk6GJQsqaUBKTNV-1" vertex="1">
          <mxGeometry x="-742" y="1029.5" width="15" height="20" as="geometry" />
        </mxCell>
        <mxCell id="Lo7v7ZP2rtgedo4GOy0i-23" value="Possui" style="text;html=1;align=center;verticalAlign=middle;whiteSpace=wrap;rounded=0;" parent="WIyWlLk6GJQsqaUBKTNV-1" vertex="1">
          <mxGeometry x="-799" y="1025.5" width="64.5" height="29" as="geometry" />
        </mxCell>
        <mxCell id="Lo7v7ZP2rtgedo4GOy0i-24" value="" style="triangle;whiteSpace=wrap;html=1;fillColor=#000000;" parent="WIyWlLk6GJQsqaUBKTNV-1" vertex="1">
          <mxGeometry x="-580.5" y="665" width="15" height="20" as="geometry" />
        </mxCell>
        <mxCell id="Lo7v7ZP2rtgedo4GOy0i-25" value="Possui" style="text;html=1;align=center;verticalAlign=middle;whiteSpace=wrap;rounded=0;" parent="WIyWlLk6GJQsqaUBKTNV-1" vertex="1">
          <mxGeometry x="-633" y="660" width="60" height="30" as="geometry" />
        </mxCell>
        <mxCell id="Lo7v7ZP2rtgedo4GOy0i-26" value="" style="triangle;whiteSpace=wrap;html=1;fillColor=#000000;" parent="WIyWlLk6GJQsqaUBKTNV-1" vertex="1">
          <mxGeometry x="-998.25" y="218" width="15" height="20" as="geometry" />
        </mxCell>
        <mxCell id="Lo7v7ZP2rtgedo4GOy0i-27" value="Possui" style="text;html=1;align=center;verticalAlign=middle;whiteSpace=wrap;rounded=0;" parent="WIyWlLk6GJQsqaUBKTNV-1" vertex="1">
          <mxGeometry x="-1050.75" y="213" width="60" height="30" as="geometry" />
        </mxCell>
        <mxCell id="Lo7v7ZP2rtgedo4GOy0i-28" value="" style="html=1;whiteSpace=wrap;aspect=fixed;shape=isoRectangle;strokeColor=light-dark(#000000,#000000);fillColor=light-dark(#F7F7F7,#000000);" parent="WIyWlLk6GJQsqaUBKTNV-1" vertex="1">
          <mxGeometry x="-975" y="1050" width="33.33" height="20" as="geometry" />
        </mxCell>
        <mxCell id="Lo7v7ZP2rtgedo4GOy0i-30" value="&lt;font style=&quot;font-size: 18px;&quot;&gt;0..10&lt;/font&gt;" style="edgeLabel;html=1;align=center;verticalAlign=middle;resizable=0;points=[];" parent="WIyWlLk6GJQsqaUBKTNV-1" connectable="0" vertex="1">
          <mxGeometry x="-932.9995351912714" y="678.9957342881623" as="geometry">
            <mxPoint x="-261" y="254" as="offset" />
          </mxGeometry>
        </mxCell>
        <mxCell id="Lo7v7ZP2rtgedo4GOy0i-31" value="&lt;font style=&quot;font-size: 18px;&quot;&gt;1..*&lt;/font&gt;" style="text;html=1;align=center;verticalAlign=middle;whiteSpace=wrap;rounded=0;" parent="WIyWlLk6GJQsqaUBKTNV-1" vertex="1">
          <mxGeometry x="-1553" y="300" width="60" height="30" as="geometry" />
        </mxCell>
        <mxCell id="Lo7v7ZP2rtgedo4GOy0i-32" value="" style="triangle;whiteSpace=wrap;html=1;fillColor=#000000;direction=south;" parent="WIyWlLk6GJQsqaUBKTNV-1" vertex="1">
          <mxGeometry x="-1553" y="465.5" width="20" height="15" as="geometry" />
        </mxCell>
        <mxCell id="Lo7v7ZP2rtgedo4GOy0i-33" value="Visualizar" style="text;html=1;align=center;verticalAlign=middle;whiteSpace=wrap;rounded=0;rotation=90;" parent="WIyWlLk6GJQsqaUBKTNV-1" vertex="1">
          <mxGeometry x="-1573" y="422" width="60" height="30" as="geometry" />
        </mxCell>
        <mxCell id="Lo7v7ZP2rtgedo4GOy0i-39" value="Alternatives" style="swimlane;whiteSpace=wrap;html=1;" parent="WIyWlLk6GJQsqaUBKTNV-1" vertex="1">
          <mxGeometry x="-130" y="594" width="120" height="130" as="geometry" />
        </mxCell>
        <mxCell id="Lo7v7ZP2rtgedo4GOy0i-41" value="+ letter : char" style="text;align=left;verticalAlign=top;spacingLeft=4;spacingRight=4;overflow=hidden;rotatable=0;points=[[0,0.5],[1,0.5]];portConstraint=eastwest;rounded=0;shadow=0;html=0;" parent="Lo7v7ZP2rtgedo4GOy0i-39" vertex="1">
          <mxGeometry y="24" width="80" height="26" as="geometry" />
        </mxCell>
        <mxCell id="Lo7v7ZP2rtgedo4GOy0i-42" value="+ text : String" style="text;align=left;verticalAlign=top;spacingLeft=4;spacingRight=4;overflow=hidden;rotatable=0;points=[[0,0.5],[1,0.5]];portConstraint=eastwest;rounded=0;shadow=0;html=0;" parent="Lo7v7ZP2rtgedo4GOy0i-39" vertex="1">
          <mxGeometry y="50" width="90" height="26" as="geometry" />
        </mxCell>
        <mxCell id="Lo7v7ZP2rtgedo4GOy0i-43" value="+ file : String" style="text;align=left;verticalAlign=top;spacingLeft=4;spacingRight=4;overflow=hidden;rotatable=0;points=[[0,0.5],[1,0.5]];portConstraint=eastwest;rounded=0;shadow=0;html=0;" parent="Lo7v7ZP2rtgedo4GOy0i-39" vertex="1">
          <mxGeometry y="76" width="90" height="26" as="geometry" />
        </mxCell>
        <mxCell id="Lo7v7ZP2rtgedo4GOy0i-44" value="+ isCorrect: Boolean" style="text;align=left;verticalAlign=top;spacingLeft=4;spacingRight=4;overflow=hidden;rotatable=0;points=[[0,0.5],[1,0.5]];portConstraint=eastwest;rounded=0;shadow=0;html=0;" parent="Lo7v7ZP2rtgedo4GOy0i-39" vertex="1">
          <mxGeometry y="102" width="120" height="26" as="geometry" />
        </mxCell>
        <mxCell id="Lo7v7ZP2rtgedo4GOy0i-46" value="" style="html=1;whiteSpace=wrap;aspect=fixed;shape=isoRectangle;strokeColor=light-dark(#000000,#000000);fillColor=light-dark(#000000,#000000);" parent="WIyWlLk6GJQsqaUBKTNV-1" vertex="1">
          <mxGeometry x="-257" y="647" width="33.33" height="20" as="geometry" />
        </mxCell>
        <mxCell id="Lo7v7ZP2rtgedo4GOy0i-47" value="" style="triangle;whiteSpace=wrap;html=1;fillColor=#000000;" parent="WIyWlLk6GJQsqaUBKTNV-1" vertex="1">
          <mxGeometry x="-169.5" y="635" width="15" height="20" as="geometry" />
        </mxCell>
        <mxCell id="Lo7v7ZP2rtgedo4GOy0i-48" value="Possui" style="text;html=1;align=center;verticalAlign=middle;whiteSpace=wrap;rounded=0;" parent="WIyWlLk6GJQsqaUBKTNV-1" vertex="1">
          <mxGeometry x="-222" y="630" width="60" height="30" as="geometry" />
        </mxCell>
        <mxCell id="Lo7v7ZP2rtgedo4GOy0i-49" value="&lt;font style=&quot;font-size: 18px;&quot;&gt;5&lt;/font&gt;" style="edgeLabel;html=1;align=center;verticalAlign=middle;resizable=0;points=[];" parent="WIyWlLk6GJQsqaUBKTNV-1" connectable="0" vertex="1">
          <mxGeometry x="-479.00299071009016" y="634.9957969130206" as="geometry">
            <mxPoint x="338" as="offset" />
          </mxGeometry>
        </mxCell>
        <mxCell id="Lo7v7ZP2rtgedo4GOy0i-50" value="&lt;font style=&quot;font-size: 18px;&quot;&gt;1&lt;/font&gt;" style="edgeLabel;html=1;align=center;verticalAlign=middle;resizable=0;points=[];" parent="WIyWlLk6GJQsqaUBKTNV-1" connectable="0" vertex="1">
          <mxGeometry x="-248" y="634.9957969130206" as="geometry" />
        </mxCell>
        <mxCell id="Lo7v7ZP2rtgedo4GOy0i-54" value="Possui" style="text;html=1;align=center;verticalAlign=middle;whiteSpace=wrap;rounded=0;" parent="WIyWlLk6GJQsqaUBKTNV-1" vertex="1">
          <mxGeometry x="-1093" y="430" width="60" height="30" as="geometry" />
        </mxCell>
        <mxCell id="TiRKfbGO8Eq-_yE3cY10-0" value="Anotacoes" style="swimlane;fontStyle=2;align=center;verticalAlign=top;childLayout=stackLayout;horizontal=1;startSize=26;horizontalStack=0;resizeParent=1;resizeLast=0;collapsible=1;marginBottom=0;rounded=0;shadow=0;strokeWidth=1;" parent="WIyWlLk6GJQsqaUBKTNV-1" vertex="1">
          <mxGeometry x="-908" y="10" width="168" height="164" as="geometry">
            <mxRectangle x="230" y="140" width="160" height="26" as="alternateBounds" />
          </mxGeometry>
        </mxCell>
        <mxCell id="TiRKfbGO8Eq-_yE3cY10-1" value="- anotacao: String" style="text;align=left;verticalAlign=top;spacingLeft=4;spacingRight=4;overflow=hidden;rotatable=0;points=[[0,0.5],[1,0.5]];portConstraint=eastwest;" parent="TiRKfbGO8Eq-_yE3cY10-0" vertex="1">
          <mxGeometry y="26" width="168" height="26" as="geometry" />
        </mxCell>
        <mxCell id="TiRKfbGO8Eq-_yE3cY10-3" value="" style="line;html=1;strokeWidth=1;align=left;verticalAlign=middle;spacingTop=-1;spacingLeft=3;spacingRight=3;rotatable=0;labelPosition=right;points=[];portConstraint=eastwest;" parent="TiRKfbGO8Eq-_yE3cY10-0" vertex="1">
          <mxGeometry y="52" width="168" height="8" as="geometry" />
        </mxCell>
        <mxCell id="TiRKfbGO8Eq-_yE3cY10-4" value="- adicionarAnotacao(): String" style="text;align=left;verticalAlign=top;spacingLeft=4;spacingRight=4;overflow=hidden;rotatable=0;points=[[0,0.5],[1,0.5]];portConstraint=eastwest;" parent="TiRKfbGO8Eq-_yE3cY10-0" vertex="1">
          <mxGeometry y="60" width="168" height="26" as="geometry" />
        </mxCell>
        <mxCell id="TiRKfbGO8Eq-_yE3cY10-5" value="- editarAnotacao(): String" style="text;align=left;verticalAlign=top;spacingLeft=4;spacingRight=4;overflow=hidden;rotatable=0;points=[[0,0.5],[1,0.5]];portConstraint=eastwest;" parent="TiRKfbGO8Eq-_yE3cY10-0" vertex="1">
          <mxGeometry y="86" width="168" height="26" as="geometry" />
        </mxCell>
        <mxCell id="TiRKfbGO8Eq-_yE3cY10-6" value="- exibirAnotacao(): String" style="text;align=left;verticalAlign=top;spacingLeft=4;spacingRight=4;overflow=hidden;rotatable=0;points=[[0,0.5],[1,0.5]];portConstraint=eastwest;" parent="TiRKfbGO8Eq-_yE3cY10-0" vertex="1">
          <mxGeometry y="112" width="168" height="26" as="geometry" />
        </mxCell>
        <mxCell id="TiRKfbGO8Eq-_yE3cY10-7" value="- excluirAnotacao(): void" style="text;align=left;verticalAlign=top;spacingLeft=4;spacingRight=4;overflow=hidden;rotatable=0;points=[[0,0.5],[1,0.5]];portConstraint=eastwest;" parent="TiRKfbGO8Eq-_yE3cY10-0" vertex="1">
          <mxGeometry y="138" width="168" height="26" as="geometry" />
        </mxCell>
        <mxCell id="TiRKfbGO8Eq-_yE3cY10-8" style="edgeStyle=orthogonalEdgeStyle;rounded=0;orthogonalLoop=1;jettySize=auto;html=1;exitX=0.984;exitY=0.525;exitDx=0;exitDy=0;exitPerimeter=0;" parent="WIyWlLk6GJQsqaUBKTNV-1" source="TiRKfbGO8Eq-_yE3cY10-10" edge="1">
          <mxGeometry relative="1" as="geometry">
            <mxPoint x="-910" y="70" as="targetPoint" />
            <Array as="points">
              <mxPoint x="-1020" y="121" />
              <mxPoint x="-1020" y="70" />
            </Array>
            <mxPoint x="-1030" y="120" as="sourcePoint" />
          </mxGeometry>
        </mxCell>
        <mxCell id="TiRKfbGO8Eq-_yE3cY10-9" value="&lt;font style=&quot;font-size: 18px;&quot;&gt;1&lt;/font&gt;" style="edgeLabel;html=1;align=center;verticalAlign=middle;resizable=0;points=[];" parent="TiRKfbGO8Eq-_yE3cY10-8" connectable="0" vertex="1">
          <mxGeometry x="0.7639" y="-3" relative="1" as="geometry">
            <mxPoint x="-191" y="19" as="offset" />
          </mxGeometry>
        </mxCell>
        <mxCell id="TiRKfbGO8Eq-_yE3cY10-10" value="" style="html=1;whiteSpace=wrap;aspect=fixed;shape=isoRectangle;strokeColor=light-dark(#000000,#000000);fillColor=light-dark(#000000,#000000);" parent="WIyWlLk6GJQsqaUBKTNV-1" vertex="1">
          <mxGeometry x="-1139" y="110" width="33.33" height="20" as="geometry" />
        </mxCell>
        <mxCell id="TiRKfbGO8Eq-_yE3cY10-11" value="" style="triangle;whiteSpace=wrap;html=1;fillColor=#000000;" parent="WIyWlLk6GJQsqaUBKTNV-1" vertex="1">
          <mxGeometry x="-974.25" y="47" width="15" height="20" as="geometry" />
        </mxCell>
        <mxCell id="TiRKfbGO8Eq-_yE3cY10-12" value="Possui" style="text;html=1;align=center;verticalAlign=middle;whiteSpace=wrap;rounded=0;" parent="WIyWlLk6GJQsqaUBKTNV-1" vertex="1">
          <mxGeometry x="-1026.75" y="42" width="60" height="30" as="geometry" />
        </mxCell>
        <mxCell id="TiRKfbGO8Eq-_yE3cY10-13" value="&lt;font style=&quot;font-size: 18px;&quot;&gt;0..*&lt;/font&gt;" style="edgeLabel;html=1;align=center;verticalAlign=middle;resizable=0;points=[];" parent="WIyWlLk6GJQsqaUBKTNV-1" connectable="0" vertex="1">
          <mxGeometry x="-921.9999999999999" y="30" as="geometry">
            <mxPoint x="-2" y="8" as="offset" />
          </mxGeometry>
        </mxCell>
      </root>
    </mxGraphModel>
  </diagram>
</mxfile>
